<svg width="24" height="24" viewBox="0 0 24 24" fill="none" xmlns="http://www.w3.org/2000/svg">
<g clip-path="url(#clip0_1814_261)">
<path fill-rule="evenodd" clip-rule="evenodd" d="M7.04359 0.139951C5.09013 0.228091 3.39698 0.705687 2.02979 2.0671C0.657834 3.43566 0.18617 5.13552 0.0978101 7.06866C0.0428837 8.27524 -0.278297 17.3906 0.653059 19.7812C1.28113 21.3939 2.51813 22.6339 4.14561 23.264C4.90503 23.5594 5.77193 23.7593 7.04359 23.8177C17.6766 24.2989 21.6181 24.0369 23.2802 19.7812C23.5751 19.0236 23.7781 18.1575 23.8342 16.889C24.3202 6.22873 23.7555 3.91805 21.9023 2.0671C20.4324 0.600867 18.7034 -0.397229 7.04359 0.139951ZM7.14147 21.6737C5.97728 21.6213 5.34564 21.4273 4.92414 21.2642C3.86383 20.8521 3.0674 20.0589 2.65784 19.0048C1.94858 17.1884 2.18382 8.5613 2.2471 7.16534C2.30919 5.79797 2.58621 4.54828 3.551 3.58351C4.74504 2.39241 6.28773 1.80866 16.7918 2.28272C18.1625 2.34466 19.4151 2.62111 20.3823 3.58351C21.5763 4.77459 22.1686 6.32916 21.6862 16.7929C21.6336 17.9542 21.439 18.5843 21.2754 19.0048C20.1948 21.7741 17.7088 22.1585 7.14147 21.6737ZM16.9076 5.62022C16.9076 6.40873 17.5488 7.04991 18.3405 7.04991C19.1321 7.04991 19.7745 6.40873 19.7745 5.62022C19.7745 4.83173 19.1321 4.19112 18.3405 4.19112C17.5488 4.19112 16.9076 4.83173 16.9076 5.62022ZM5.8352 11.9782C5.8352 15.3562 8.58032 18.0948 11.9666 18.0948C15.3529 18.0948 18.0981 15.3562 18.0981 11.9782C18.0981 8.6003 15.3529 5.86339 11.9666 5.86339C8.58032 5.86339 5.8352 8.6003 5.8352 11.9782ZM7.98687 11.9782C7.98687 9.78664 9.7684 8.00851 11.9666 8.00851C14.1649 8.00851 15.9464 9.78664 15.9464 11.9782C15.9464 14.171 14.1649 15.9497 11.9666 15.9497C9.7684 15.9497 7.98687 14.171 7.98687 11.9782Z" fill="white"/>
</g>
<defs>
<clipPath id="clip0_1814_261">
<rect width="24" height="24" fill="white" transform="translate(0 -0.00732422)"/>
</clipPath>
</defs>
</svg>
