<svg width="25" height="24" viewBox="0 0 25 24" fill="none" xmlns="http://www.w3.org/2000/svg">
<g clip-path="url(#clip0_1376_2)">
<path d="M18.4888 13.7834C18.4421 13.7609 16.6924 12.8993 16.3815 12.7874C16.2546 12.7419 16.1186 12.6974 15.974 12.6974C15.7377 12.6974 15.5393 12.8151 15.3847 13.0464C15.2099 13.3062 14.6808 13.9246 14.5173 14.1094C14.496 14.1338 14.4668 14.1629 14.4494 14.1629C14.4337 14.1629 14.1629 14.0514 14.0809 14.0158C12.204 13.2005 10.7794 11.2399 10.584 10.9093C10.5561 10.8618 10.555 10.8402 10.5547 10.8402C10.5616 10.815 10.6247 10.7517 10.6573 10.7191C10.7526 10.6248 10.8558 10.5005 10.9557 10.3803C11.003 10.3233 11.0504 10.2663 11.0969 10.2125C11.2419 10.0439 11.3064 9.91297 11.3812 9.76134L11.4204 9.68256C11.603 9.31968 11.447 9.01344 11.3966 8.91456C11.3552 8.83181 10.6164 7.04879 10.5379 6.86147C10.349 6.40944 10.0994 6.19897 9.75261 6.19897C9.72042 6.19897 9.75261 6.19897 9.61764 6.20466C9.45331 6.2116 8.55837 6.32942 8.16268 6.57884C7.74307 6.84339 7.0332 7.68666 7.0332 9.16968C7.0332 10.5044 7.88022 11.7646 8.24388 12.2439C8.25292 12.256 8.26952 12.2806 8.29359 12.3158C9.68629 14.3497 11.4225 15.857 13.1825 16.5601C14.8769 17.2369 15.6793 17.3152 16.1354 17.3152H16.1355C16.3272 17.3152 16.4806 17.3001 16.616 17.2868L16.7019 17.2786C17.2872 17.2267 18.5735 16.5602 18.8661 15.7471C19.0966 15.1066 19.1574 14.4069 19.0041 14.1529C18.899 13.9803 18.718 13.8934 18.4888 13.7834Z" fill="white"/>
<path d="M12.9392 0.232422C6.43928 0.232422 1.34718 5.24114 1.34718 11.6922C1.34718 13.7788 2.00872 15.843 3.06651 17.6305L0.862205 23.3388C0.82449 23.4502 0.852542 23.5733 0.934906 23.6571C0.99436 23.7178 1.07501 23.7506 1.15737 23.7506C1.18893 23.7506 1.22072 23.7458 1.25174 23.7359L7.37627 21.8626C9.08043 22.7731 10.99 23.2343 12.9393 23.2343C19.4386 23.2344 24.5505 18.1426 24.5505 11.6922C24.5505 5.24114 19.4386 0.232422 12.9392 0.232422ZM12.9393 20.9533C11.1051 20.9533 9.32855 20.4237 7.80143 19.4216C7.75008 19.3879 7.69047 19.3706 7.63047 19.3706C7.59876 19.3706 7.56697 19.3754 7.53603 19.3852L4.14652 20.6674L5.42349 17.4058C5.45606 17.3096 5.43977 17.2036 5.37977 17.1216C4.21686 15.5326 3.60214 13.6552 3.60214 11.6922C3.60214 6.58499 7.79076 2.42987 12.9392 2.42987C18.0871 2.42987 22.2752 6.58499 22.2752 11.6922C22.2753 16.7989 18.0872 20.9533 12.9393 20.9533Z" fill="white"/>
</g>
<defs>
<clipPath id="clip0_1376_2">
<rect width="24" height="24" fill="white" transform="translate(0.730469 -0.00732422)"/>
</clipPath>
</defs>
</svg>
